<svg xmlns="http://www.w3.org/2000/svg" xmlns:xlink="http://www.w3.org/1999/xlink" width="200" height="200" viewBox="0 0 200 200">
  <defs>
    <linearGradient id="linear-gradient" x1="-4.907" y1="7.481" x2="-4.867" y2="7.481" gradientUnits="objectBoundingBox">
      <stop offset="0" stop-color="#b8e3e8"/>
      <stop offset="1" stop-color="#a3d6ed"/>
    </linearGradient>
    <linearGradient id="linear-gradient-2" x1="-7.151" y1="4.717" x2="-7.098" y2="4.717" gradientUnits="objectBoundingBox">
      <stop offset="0" stop-color="#51b3e5"/>
      <stop offset="1" stop-color="#8f439a"/>
    </linearGradient>
    <linearGradient id="linear-gradient-3" x1="1.881" y1="-0.789" x2="1.454" y2="-0.315" gradientUnits="objectBoundingBox">
      <stop offset="0" stop-color="#503f8a"/>
      <stop offset="1" stop-color="#22b9d2"/>
    </linearGradient>
    <linearGradient id="linear-gradient-4" x1="0.673" y1="-1.483" x2="1.55" y2="-0.927" gradientUnits="objectBoundingBox">
      <stop offset="0" stop-color="#fec811"/>
      <stop offset="0.22" stop-color="#ed8c28"/>
      <stop offset="0.47" stop-color="#df452e"/>
      <stop offset="0.615" stop-color="#c82b5a"/>
      <stop offset="0.834" stop-color="#764293"/>
      <stop offset="1" stop-color="#4b3b93"/>
    </linearGradient>
    <linearGradient id="linear-gradient-5" x1="0.376" y1="-0.196" x2="1.075" y2="0.5" gradientUnits="objectBoundingBox">
      <stop offset="0" stop-color="#7f4d9f"/>
      <stop offset="0.59" stop-color="#3e308e"/>
      <stop offset="0.682" stop-color="#3e308e"/>
      <stop offset="1" stop-color="#25215f"/>
    </linearGradient>
    <linearGradient id="linear-gradient-6" x1="0.91" y1="0.144" x2="-0.059" y2="1.222" xlink:href="#linear-gradient-4"/>
    <linearGradient id="linear-gradient-7" x1="-1.65" y1="2.145" x2="1.248" y2="0.115" xlink:href="#linear-gradient-5"/>
  </defs>
  <g id="Group_2723" data-name="Group 2723" transform="translate(-5542 309)">
    <rect id="Rectangle_1062" data-name="Rectangle 1062" width="200" height="200" transform="translate(5542 -309)" fill="#fff" opacity="0"/>
    <g id="Group_2315" data-name="Group 2315" transform="translate(5545.71 -246.413)">
      <path id="Path_4416" data-name="Path 4416" d="M1.188-24.09a2.7,2.7,0,0,1,.9-2.324A2.94,2.94,0,0,1,4.067-27a3.081,3.081,0,0,1,1.873.763,1.794,1.794,0,0,1,.59,1.8q-.139.833-.451,3.261t-.59,5.585Q5.212-12.435,5-9.035T4.761-2.757a34.141,34.141,0,0,0,.208,4.718Q5.212,3.8,5.906,3.8q.416,0,1.145-1.526T8.507-1.2Q9.236-3.138,9.86-4.977t.833-2.394a1.09,1.09,0,0,1,.624-.833,1.485,1.485,0,0,1,.937-.1,1.364,1.364,0,0,1,.763.486,1,1,0,0,1,.1,1.006Q12.7-5.428,12.011-2.93A38.976,38.976,0,0,1,10.277,2a17.93,17.93,0,0,1-2.5,4.232,4.342,4.342,0,0,1-3.469,1.8A3,3,0,0,1,1.5,6.054,16.078,16.078,0,0,1,.217,1.024a48.616,48.616,0,0,1-.243-6.8q.1-3.746.382-7.319t.555-6.521Q1.188-22.564,1.188-24.09ZM9.028-9.521A2.646,2.646,0,0,1,9.9-11.811,2.575,2.575,0,0,1,11.8-12.3a3.064,3.064,0,0,1,1.8.9,1.982,1.982,0,0,1,.555,1.873q-.278,1.249-.52,3.122t-.312,3.608a17.085,17.085,0,0,0,.1,2.983q.173,1.249.8,1.249.416,0,1.006-1.075a20.4,20.4,0,0,0,1.145-2.532q.555-1.457,1.041-2.914a17.726,17.726,0,0,0,.624-2.22,1.435,1.435,0,0,1,.694-.937,1.366,1.366,0,0,1,.937-.139,1.31,1.31,0,0,1,.763.52,1.078,1.078,0,0,1,.1,1.041q-.139.416-.451,1.561t-.8,2.532Q18.81-1.335,18.151.157a13.141,13.141,0,0,1-1.526,2.636,6.827,6.827,0,0,1-1.908,1.769,2.811,2.811,0,0,1-2.289.278A4.219,4.219,0,0,1,9.756,2.793,8.543,8.543,0,0,1,8.82-.675a29.892,29.892,0,0,1,.035-4.3Q9.028-7.3,9.028-9.521Zm7.909-9.5a2.287,2.287,0,0,1-.173,1.422,3.467,3.467,0,0,1-.937,1.179,5.654,5.654,0,0,1-1.457.867,7.43,7.43,0,0,1-1.734.486,7.715,7.715,0,0,1-3.4-.347A2.451,2.451,0,0,1,7.363-17.43a2.651,2.651,0,0,1,.937-2.6,6.388,6.388,0,0,1,3.226-1.422,6.433,6.433,0,0,1,3.608.312A2.648,2.648,0,0,1,16.937-19.026ZM27.829-7.232a4.5,4.5,0,0,1-1.388,1.249,9.083,9.083,0,0,1-1.8.8,11.653,11.653,0,0,1-1.977.451q-1.006.139-1.769.208a24.43,24.43,0,0,0-.243,2.844,14.005,14.005,0,0,0,.139,2.5,6.408,6.408,0,0,0,.555,1.873,1.764,1.764,0,0,0,1.075.971,2.414,2.414,0,0,0,1.943-.312,8.542,8.542,0,0,0,2.012-1.63A17.633,17.633,0,0,0,28.245-.71q.9-1.388,1.6-2.671T31.02-5.74A13.172,13.172,0,0,0,31.645-7.3a1.3,1.3,0,0,1,.659-.833,1.467,1.467,0,0,1,.867-.139,1.056,1.056,0,0,1,.694.451A1.2,1.2,0,0,1,34-6.815q-.139.416-.486,1.63a22.888,22.888,0,0,1-1.006,2.74,31.16,31.16,0,0,1-1.6,3.157A14.88,14.88,0,0,1,28.662,3.7,12.108,12.108,0,0,1,25.644,5.95a7.94,7.94,0,0,1-3.781.9,4.694,4.694,0,0,1-3.885-1.734A9.672,9.672,0,0,1,16.1.747a19.856,19.856,0,0,1-.173-5.654,24.3,24.3,0,0,1,1.249-5.654,14.475,14.475,0,0,1,2.359-4.371A4.071,4.071,0,0,1,22.7-16.667a4.3,4.3,0,0,1,2.949,1.145,7.965,7.965,0,0,1,1.977,2.671,8.894,8.894,0,0,1,.8,3.122A3.605,3.605,0,0,1,27.829-7.232Zm-4.3-6.175q-.486.208-1.041,1.769a31.638,31.638,0,0,0-1.041,3.781,6.867,6.867,0,0,0,1.526-.173,1.675,1.675,0,0,0,1.11-.728,2.614,2.614,0,0,0,.347-1.214,7.721,7.721,0,0,0-.035-1.63,5.057,5.057,0,0,0-.347-1.388Q23.805-13.545,23.528-13.406Zm7.285-11.586a2.7,2.7,0,0,1,.9-2.324,2.886,2.886,0,0,1,1.943-.59,3.042,3.042,0,0,1,1.838.763,1.794,1.794,0,0,1,.59,1.8q-.069.347-.208,1.561T35.6-20.725q-.139,1.838-.347,4.093t-.416,4.683a4.879,4.879,0,0,1,1.457-1.11,4.459,4.459,0,0,1,2.012-.416,4.286,4.286,0,0,1,3.261,1.318,7.733,7.733,0,0,1,1.8,3.33,12.516,12.516,0,0,1,.382,4.3,13.926,13.926,0,0,1-1.006,4.3,8.727,8.727,0,0,1-2.359,3.33,5.341,5.341,0,0,1-3.608,1.318,3.712,3.712,0,0,1-2.914-1.249V5.187A1.845,1.845,0,0,1,33,6.678a3.348,3.348,0,0,1-1.734.555A2.887,2.887,0,0,1,29.6,6.817a1.489,1.489,0,0,1-.659-1.492q.139-1.734.347-4.475T29.7-5.012q.208-3.122.416-6.348t.347-6q.139-2.775.243-4.822T30.812-24.992ZM34.281-3.763q-.069.416-.1.867t-.035.937a6.965,6.965,0,0,0,.59,2.324,1.791,1.791,0,0,0,1.422,1.075q.624.139,1.179-.694A7.791,7.791,0,0,0,38.27-1.4a19.634,19.634,0,0,0,.59-2.914A28.825,28.825,0,0,0,39.1-7.336a10.429,10.429,0,0,0-.173-2.394q-.208-.971-.624-1.11a1.427,1.427,0,0,0-1.422.416,5.785,5.785,0,0,0-1.179,1.7A14.8,14.8,0,0,0,34.8-6.3,16.462,16.462,0,0,0,34.281-3.763ZM56.343-7.232a4.5,4.5,0,0,1-1.388,1.249,9.083,9.083,0,0,1-1.8.8,11.653,11.653,0,0,1-1.977.451q-1.006.139-1.769.208a24.43,24.43,0,0,0-.243,2.844A14.006,14.006,0,0,0,49.3.816a6.408,6.408,0,0,0,.555,1.873,1.764,1.764,0,0,0,1.075.971,2.414,2.414,0,0,0,1.943-.312,8.542,8.542,0,0,0,2.012-1.63A17.633,17.633,0,0,0,56.759-.71q.9-1.388,1.6-2.671T59.534-5.74A13.173,13.173,0,0,0,60.159-7.3a1.3,1.3,0,0,1,.659-.833,1.467,1.467,0,0,1,.867-.139,1.056,1.056,0,0,1,.694.451,1.2,1.2,0,0,1,.139,1.006q-.139.416-.486,1.63a22.886,22.886,0,0,1-1.006,2.74A31.162,31.162,0,0,1,59.43.712,14.88,14.88,0,0,1,57.176,3.7,12.108,12.108,0,0,1,54.158,5.95a7.94,7.94,0,0,1-3.781.9,4.694,4.694,0,0,1-3.885-1.734A9.672,9.672,0,0,1,44.618.747a19.856,19.856,0,0,1-.173-5.654,24.3,24.3,0,0,1,1.249-5.654,14.475,14.475,0,0,1,2.359-4.371,4.071,4.071,0,0,1,3.157-1.734,4.3,4.3,0,0,1,2.949,1.145,7.965,7.965,0,0,1,1.977,2.671,8.894,8.894,0,0,1,.8,3.122A3.605,3.605,0,0,1,56.343-7.232Zm-4.3-6.175Q51.556-13.2,51-11.637A31.637,31.637,0,0,0,49.96-7.856a6.867,6.867,0,0,0,1.526-.173,1.675,1.675,0,0,0,1.11-.728,2.614,2.614,0,0,0,.347-1.214,7.722,7.722,0,0,0-.035-1.63,5.057,5.057,0,0,0-.347-1.388Q52.319-13.545,52.042-13.406ZM70.288-24.09a2.7,2.7,0,0,1,.9-2.324A2.94,2.94,0,0,1,73.167-27a3.081,3.081,0,0,1,1.873.763,1.794,1.794,0,0,1,.59,1.8q-.139.833-.451,3.261t-.59,5.585q-.278,3.157-.486,6.556t-.243,6.279a34.141,34.141,0,0,0,.208,4.718q.243,1.838.937,1.838.416,0,1.145-1.526T77.607-1.2q.728-1.943,1.353-3.781t.833-2.394a1.09,1.09,0,0,1,.624-.833,1.485,1.485,0,0,1,.937-.1,1.364,1.364,0,0,1,.763.486,1,1,0,0,1,.1,1.006Q81.8-5.428,81.111-2.93A38.975,38.975,0,0,1,79.376,2a17.93,17.93,0,0,1-2.5,4.232,4.342,4.342,0,0,1-3.469,1.8A3,3,0,0,1,70.6,6.054a16.078,16.078,0,0,1-1.283-5.03,48.616,48.616,0,0,1-.243-6.8q.1-3.746.382-7.319t.555-6.521Q70.288-22.564,70.288-24.09Zm7.84,14.569a2.646,2.646,0,0,1,.867-2.289A2.575,2.575,0,0,1,80.9-12.3a3.064,3.064,0,0,1,1.8.9,1.982,1.982,0,0,1,.555,1.873q-.278,1.249-.52,3.122t-.312,3.608a17.084,17.084,0,0,0,.1,2.983q.173,1.249.8,1.249.416,0,1.006-1.075a20.4,20.4,0,0,0,1.145-2.532q.555-1.457,1.041-2.914a17.724,17.724,0,0,0,.624-2.22,1.435,1.435,0,0,1,.694-.937,1.366,1.366,0,0,1,.937-.139,1.31,1.31,0,0,1,.763.52,1.078,1.078,0,0,1,.1,1.041q-.139.416-.451,1.561t-.8,2.532Q87.91-1.335,87.251.157a13.14,13.14,0,0,1-1.526,2.636,6.827,6.827,0,0,1-1.908,1.769,2.811,2.811,0,0,1-2.289.278,4.219,4.219,0,0,1-2.671-2.047,8.543,8.543,0,0,1-.937-3.469,29.893,29.893,0,0,1,.035-4.3Q78.127-7.3,78.127-9.521Zm7.909-9.5a2.287,2.287,0,0,1-.173,1.422,3.467,3.467,0,0,1-.937,1.179,5.654,5.654,0,0,1-1.457.867,7.43,7.43,0,0,1-1.734.486,7.715,7.715,0,0,1-3.4-.347,2.451,2.451,0,0,1-1.873-2.012,2.651,2.651,0,0,1,.937-2.6,6.388,6.388,0,0,1,3.226-1.422,6.433,6.433,0,0,1,3.608.312A2.648,2.648,0,0,1,86.036-19.026Zm-.486,7.978a2.2,2.2,0,0,1,1.006-1.8,4.638,4.638,0,0,1,1.977-.763,4.522,4.522,0,0,1,1.873.1q.833.243.694.867a14.409,14.409,0,0,0-.52,4.2,30.138,30.138,0,0,0,.347,4.232,14.371,14.371,0,0,0,.867,3.3Q92.35.4,92.9.4q.624,0,1.214-1.561A26.66,26.66,0,0,0,95.16-4.734q.451-2.012.728-3.954a22.614,22.614,0,0,0,.278-2.706,1.167,1.167,0,0,1,.52-1.041,1.914,1.914,0,0,1,1.075-.347,1.61,1.61,0,0,1,1.006.347,1.083,1.083,0,0,1,.382,1.041q-.069.416-.208,1.734T98.49-6.607A33.8,33.8,0,0,1,97.622-3,19.383,19.383,0,0,1,96.235.469a9.376,9.376,0,0,1-1.977,2.636,4.14,4.14,0,0,1-2.671,1.11A3.948,3.948,0,0,1,88.326,3,9.083,9.083,0,0,1,86.279-.571a20.021,20.021,0,0,1-.9-5A28.852,28.852,0,0,1,85.551-11.047Zm26.016,3.816a4.5,4.5,0,0,1-1.388,1.249,9.083,9.083,0,0,1-1.8.8,11.652,11.652,0,0,1-1.977.451q-1.006.139-1.769.208a24.43,24.43,0,0,0-.243,2.844,14.005,14.005,0,0,0,.139,2.5,6.408,6.408,0,0,0,.555,1.873,1.764,1.764,0,0,0,1.075.971,2.414,2.414,0,0,0,1.943-.312,8.542,8.542,0,0,0,2.012-1.63A17.632,17.632,0,0,0,111.983-.71q.9-1.388,1.6-2.671t1.179-2.359a13.172,13.172,0,0,0,.624-1.561,1.3,1.3,0,0,1,.659-.833,1.467,1.467,0,0,1,.867-.139,1.056,1.056,0,0,1,.694.451,1.2,1.2,0,0,1,.139,1.006q-.139.416-.486,1.63a22.885,22.885,0,0,1-1.006,2.74,31.159,31.159,0,0,1-1.6,3.157A14.88,14.88,0,0,1,112.4,3.7a12.108,12.108,0,0,1-3.018,2.255,7.94,7.94,0,0,1-3.781.9,4.694,4.694,0,0,1-3.885-1.734A9.672,9.672,0,0,1,99.842.747a19.856,19.856,0,0,1-.173-5.654,24.3,24.3,0,0,1,1.249-5.654,14.475,14.475,0,0,1,2.359-4.371,4.071,4.071,0,0,1,3.157-1.734,4.3,4.3,0,0,1,2.949,1.145,7.965,7.965,0,0,1,1.977,2.671,8.894,8.894,0,0,1,.8,3.122A3.605,3.605,0,0,1,111.567-7.232Zm-4.3-6.175q-.486.208-1.041,1.769a31.639,31.639,0,0,0-1.041,3.781,6.867,6.867,0,0,0,1.526-.173,1.675,1.675,0,0,0,1.11-.728,2.614,2.614,0,0,0,.347-1.214,7.723,7.723,0,0,0-.035-1.63,5.057,5.057,0,0,0-.347-1.388Q107.543-13.545,107.266-13.406Z" transform="translate(74.004 47.714)" fill="#f15f31"/>
      <g id="Group_1475" data-name="Group 1475" transform="translate(0.369 6.131)">
        <g id="Group_1777" data-name="Group 1777" transform="translate(0 0)">
          <rect id="Rectangle_804" data-name="Rectangle 804" width="61" height="60" transform="translate(-0.08 0.281)" fill="#fff" opacity="0"/>
          <g id="Group_1776" data-name="Group 1776" transform="translate(3.211 2.935)">
            <g id="Group_1758" data-name="Group 1758" transform="translate(11.995 17.884)">
              <path id="Path_3831" data-name="Path 3831" d="M314.475-413.319a4.275,4.275,0,0,0,2.717,5.373h0a5.254,5.254,0,0,0,1.378.339h0c6.766-.3,6.305-7.4.547-8.013h0a4.916,4.916,0,0,0-.841-.073h0a3.979,3.979,0,0,0-3.8,2.374" transform="translate(-314.222 415.693)" fill="url(#linear-gradient)"/>
            </g>
            <g id="Group_1759" data-name="Group 1759" transform="translate(16.322 15.377)">
              <path id="Path_3832" data-name="Path 3832" d="M345.207-431.623c-.258.66-.515,1.32-.685,1.289h0a37.75,37.75,0,0,0-.546,8.013h0c.878,5.673,6.192,1.117,6.854-.523h0c.816-2.038-2.605-9.132-4.922-10.063h0a.064.064,0,0,0-.025-.005h0c-.172,0-.424.645-.675,1.29" transform="translate(-343.952 432.914)" fill="url(#linear-gradient-2)"/>
            </g>
            <g id="Group_1760" data-name="Group 1760" transform="translate(20.228 2.046)">
              <path id="Path_3833" data-name="Path 3833" d="M385.8-520.455c-3.788,2.656-9.766,3.084-12.129,4.284h0c-3.655,1.863-2.711,7.9-.725,9.954h0c1.993,2.047,1.933,2.537.132,3.691h0c-1.794,1.147-3.192,5.855-1.582,7.779h0c1.453,1.747,4.867,4.4,5.669,7.317h0c.04.146.628.052,1.211-.042h0c.6-.1,1.191-.193,1.176-.03h0a89.173,89.173,0,0,1,1.277-10.546h0c2.017-8.775,9.068-10.568,12.148-13.9h0a8.591,8.591,0,0,0-1.416-12.569h0c1.531,1.478-3.688,2.6-5.759,4.064" transform="translate(-370.791 524.519)" fill="url(#linear-gradient-3)"/>
            </g>
            <g id="Group_1761" data-name="Group 1761" transform="translate(0.256 30.551)">
              <path id="Path_3834" data-name="Path 3834" d="M250.577-325.835c-.3.057.532,3.422.183,3.339h0c-3.487-.815-7.051-1.085-10.414.309h0a11.284,11.284,0,0,0-6,5.626h.008c.027-.052-.186,1.157-.4,2.367h0c-.211,1.207-.422,2.414-.392,2.367h0c1.492-2.362,5.849-6.692,11.118-5.537h0a37.075,37.075,0,0,1,5.844,1.45h0a67.5,67.5,0,0,1,10,4.944h0c.354.215,1.514,1.234,1.868,1.451h0a19.508,19.508,0,0,0,4.307,2.175h0c1.578.493,3.977.825,4.57.132h0c.573-.67,2.165-.184,3.8.3h0c1.588.474,3.214.948,3.98.356h0c1.386-1.07,1.815-4.005,5.186-5.23h0c4.234-1.539-.393-10.466-3.472-13.868h0c-3.294,6.474-12.285,7.711-18.567,6.488h0c-.316-.053-3.766-9.3-4.065-9.375h0a3.853,3.853,0,0,0-.924-.114h0c-2.4,0-4.108,2.331-6.624,2.817" transform="translate(-233.556 328.651)" fill="url(#linear-gradient-4)"/>
            </g>
            <g id="Group_1762" data-name="Group 1762" transform="translate(16.344 0)">
              <path id="Path_3835" data-name="Path 3835" d="M350.848-533.379a24.436,24.436,0,0,0-6.2,12.755h0a5.081,5.081,0,0,1,1.031.293h0a4.282,4.282,0,0,1,2.725,5.372h0a4.07,4.07,0,0,1-4.3,2.349h0a57.162,57.162,0,0,0,.454,5.788h0c.231,1.778.461,3.425.661,4.949h0c3.679.871,7.274,2.341,10.5,3.133h0c.3.078.616.147.931.2h0c.039-.33.07-.653.1-.977h0c.316-3.5-2.571-7.051-4.172-8.975h0c-1.61-1.924-.323-3.6,1.47-4.749h0c1.8-1.154,1.416-4.041-.577-6.089h0c-1.986-2.055-3.464-4.619.192-6.482h0c2.364-1.2,10.968-1.831,14.756-4.488h0c2.071-1.462,1.87-4.756.339-6.234h0l-.016-.017h0a11.936,11.936,0,0,0-1.224-.807h0a10.471,10.471,0,0,0-5.15-1.222h0a15.95,15.95,0,0,0-11.522,5.2" transform="translate(-344.106 538.58)" fill="url(#linear-gradient-5)"/>
            </g>
            <g id="Group_1763" data-name="Group 1763" transform="translate(0 33.551)">
              <path id="Path_3836" data-name="Path 3836" d="M277.522-297.834a11.076,11.076,0,0,1-4.675.467h0c-1.259-.077-2.281-.154-2.954.365h0c-1.555,1.2.254,3.718-.877,5.041h0c-.593.693-2,.747-3.579.254h0a26.453,26.453,0,0,1-4.781-2.663h0c-.354-.216-.715-.439-1.069-.653h0a66.186,66.186,0,0,0-9.783-5.221h0a35.121,35.121,0,0,0-5.7-1.762h0c-5.481-1.2-9.869.346-11.261,3.064h-.008a11.675,11.675,0,0,0,1.515,12.076h0a12.033,12.033,0,0,0,4.9,3.8h0a4.185,4.185,0,0,1,.428.156h0a3.938,3.938,0,0,0,.476.163h0a11.564,11.564,0,0,1,2.127.254h0c1.6.238,3.518.477,3.555-.011h0c.1-1.275-7.442-5.879-8.119-8.69h0c-.983-4.081,1.1-6.443,2.418-7.12h0c.146-.077.3-.155.455-.224h0a6.963,6.963,0,0,1,5.434.131h0a36.826,36.826,0,0,1,3.895,1.932h0c.15.083-.533,6.008-.381,6.094h0c2.273,1.283,4.012.853,6.68,2.417h0a8,8,0,0,0,1.1-1.761h0a7.939,7.939,0,0,1,1.1-1.761h0c1.578.932,3.195,1.855,4.8,2.7h0c7.405,3.925,15.78,3.833,20.267-1.548h0c4.5-5.38,1.8-15.132-4.233-17.7h0c3.079,3.4,2.5,8.659-1.732,10.2" transform="translate(-231.797 308.033)" fill="url(#linear-gradient-6)"/>
            </g>
            <g id="Group_1764" data-name="Group 1764" transform="translate(3.849 43.266)">
              <path id="Path_3837" data-name="Path 3837" d="M261.859-226.033a.023.023,0,0,0,.015.008h0a14.317,14.317,0,0,0,17.019-4.611h0a19.011,19.011,0,0,0,2.131-3.818h0c-3.04-1.771-5.966-3.58-8.5-4.988h0c-.14,2.994-1.07,5-3.51,6.142h0c-4.025,1.887-8.536-.47-8.467-4.226h0a4.305,4.305,0,0,1,2.194-3.756h0c-6.081,3.133-5.611,13.024-.885,15.248" transform="translate(-258.248 241.281)" fill="url(#linear-gradient-7)"/>
            </g>
          </g>
        </g>
      </g>
    </g>
  </g>
</svg>
