<svg xmlns="http://www.w3.org/2000/svg" xmlns:xlink="http://www.w3.org/1999/xlink" width="1920" height="1080" viewBox="0 0 1920 1080">
  <defs>
    <style>
      .cls-1 {
        fill: #3a3099;
      }

      .cls-2 {
        clip-path: url(#clip-path);
      }

      .cls-3, .cls-5 {
        fill: #fff;
        opacity: 0.05;
      }

      .cls-3 {
        font-size: 200px;
        font-family: NunitoSans-Black, Nunito Sans;
        font-weight: 800;
      }

      .cls-4 {
        fill: none;
        stroke: #fff;
        stroke-width: 2px;
        opacity: 0.1;
      }
    </style>
    <clipPath id="clip-path">
      <path id="_00-The-Endangered_Hero" data-name="00-The-Endangered_Hero" class="cls-1" d="M0,0H1920V1080H0Z" transform="translate(8531 3596)"/>
    </clipPath>
  </defs>
  <g id="Mask_Group_3" data-name="Mask Group 3" class="cls-2" transform="translate(-8531 -3596)">
    <path id="_00-The-Endangered_Hero-2" data-name="00-The-Endangered_Hero" class="cls-1" d="M0,0H1920V1080H0Z" transform="translate(8531 3596)"/>
    <text id="Live" class="cls-3" transform="translate(8761 4325)"><tspan x="0" y="0">Live</tspan></text>
    <path id="Path_4418" data-name="Path 4418" class="cls-4" d="M69.113,54.014a90.744,90.744,0,0,1-23.979-3.228Q33.3,47.558,25.92,42.178L34.682,22.2a66.636,66.636,0,0,0,16.755,7.532,63.64,63.64,0,0,0,17.984,2.613q9.223,0,14.065-2.536t4.842-7.148q0-4.15-4.381-6.763T67.269,10.667Q52.051,7.439,43.443,2.982T31.377-7.471q-3.459-5.995-3.459-14.756a30.218,30.218,0,0,1,5.611-17.907A37.459,37.459,0,0,1,49.361-52.585,57.286,57.286,0,0,1,72.8-57.12a78.308,78.308,0,0,1,22.673,3.3q10.99,3.3,17.139,8.531L104.006-25.3Q89.25-35.447,72.956-35.447q-7.839,0-12.6,3t-4.765,7.916a6.776,6.776,0,0,0,1.691,4.765q1.691,1.845,6.3,3.612a92.04,92.04,0,0,0,13.68,3.612q14.756,3.228,23.211,7.762T112.46,5.748A27.645,27.645,0,0,1,116,20.044q0,15.986-12.3,24.978T69.113,54.014Zm115.438,0q-16.908,0-29.436-6.917A47.034,47.034,0,0,1,135.9,27.576q-6.686-12.6-6.687-29.205T135.9-30.758A47.15,47.15,0,0,1,155.115-50.2q12.528-6.917,29.436-6.917a65.867,65.867,0,0,1,20.521,3.228,47.176,47.176,0,0,1,16.217,8.608L212.527-25.3q-13.373-9.376-27.361-9.376-13.219,0-20.213,8.3T157.959-1.63q0,16.447,6.994,24.825t20.213,8.377q13.988,0,27.361-9.376l8.762,19.983a47.176,47.176,0,0,1-16.217,8.608A65.867,65.867,0,0,1,184.551,54.014Zm149.1-1.383H302.6L283.85,18.045q-3.535-5.995-11.221-5.995h-8.608v40.58H236.2V-55.737h51.647q19.675,0,29.59,8.531t9.914,24.671q0,12.3-6.763,20.828T301.526,9.745q9.377,2,14.91,12.143ZM283.388-9.162q9.376,0,13.45-2.921t4.073-9.53q0-6.763-4.073-9.761t-13.45-3H263.713V-9.162Zm61.485,61.792V-55.737h77.01v21.827h-49.5v20.6h46.421V8.362H372.388V30.8h49.5V52.631Zm91.766,0V-55.737h77.01v21.827h-49.5v20.6h46.421V8.362H464.154V30.8h49.5V52.631ZM598.653-55.737h26.439V52.631h-20.9l-49.5-61.946V52.631H528.406V-55.737H549L598.653,6.21Zm85.31,109.751a90.744,90.744,0,0,1-23.979-3.228q-11.836-3.228-19.214-8.608L649.532,22.2a66.637,66.637,0,0,0,16.755,7.532,63.639,63.639,0,0,0,17.984,2.613q9.223,0,14.065-2.536t4.842-7.148q0-4.15-4.381-6.763t-16.678-5.226Q666.9,7.439,658.293,2.982T646.227-7.471q-3.459-5.995-3.459-14.756a30.218,30.218,0,0,1,5.611-17.907,37.459,37.459,0,0,1,15.832-12.451,57.285,57.285,0,0,1,23.441-4.535,78.307,78.307,0,0,1,22.673,3.3q10.99,3.3,17.139,8.531L718.856-25.3Q704.1-35.447,687.806-35.447q-7.839,0-12.6,3t-4.765,7.916a6.776,6.776,0,0,0,1.691,4.765q1.691,1.845,6.3,3.612a92.039,92.039,0,0,0,13.68,3.612q14.756,3.228,23.211,7.762T727.31,5.748a27.645,27.645,0,0,1,3.535,14.3q0,15.986-12.3,24.978T683.963,54.014ZM818.769-55.737h27.668V52.631H818.769V8.823H774.5V52.631H746.832V-55.737H774.5v42.117h44.269ZM917.606,54.014q-16.6,0-28.821-6.84a46.676,46.676,0,0,1-18.83-19.368q-6.61-12.528-6.61-29.436t6.61-29.436a46.191,46.191,0,0,1,18.83-19.291q12.22-6.763,28.821-6.763t28.821,6.763A45.715,45.715,0,0,1,965.18-31.066q6.533,12.528,6.533,29.436T965.1,27.806a46.675,46.675,0,0,1-18.83,19.368Q934.053,54.014,917.606,54.014Zm0-21.673q12.3,0,19.214-8.685T943.737-1.63q0-16.6-6.994-25.209t-19.137-8.608q-12.3,0-19.214,8.531T891.475-1.63q0,16.755,6.917,25.363T917.606,32.341Zm89.307,20.29V-32.833H974.48v-22.9h93.457v22.9H1035.5V52.631ZM1115.9,54.014a90.744,90.744,0,0,1-23.979-3.228q-11.836-3.228-19.214-8.608l8.762-19.983a66.64,66.64,0,0,0,16.755,7.532,63.639,63.639,0,0,0,17.984,2.613q9.223,0,14.065-2.536t4.842-7.148q0-4.15-4.381-6.763t-16.678-5.226q-15.218-3.228-23.825-7.686T1078.159-7.471q-3.458-5.995-3.458-14.756a30.218,30.218,0,0,1,5.61-17.907,37.459,37.459,0,0,1,15.832-12.451,57.287,57.287,0,0,1,23.441-4.535,78.307,78.307,0,0,1,22.673,3.3q10.99,3.3,17.139,8.531L1150.788-25.3q-14.756-10.145-31.05-10.145-7.839,0-12.6,3t-4.765,7.916a6.776,6.776,0,0,0,1.691,4.765q1.691,1.845,6.3,3.612a92.039,92.039,0,0,0,13.68,3.612q14.756,3.228,23.211,7.762t11.99,10.529a27.646,27.646,0,0,1,3.535,14.3q0,15.986-12.3,24.978T1115.9,54.014Z" transform="translate(9958.08 4554.943)"/>
    <path id="Path_4419" data-name="Path 4419" class="cls-5" d="M72.934,63.845a98.771,98.771,0,0,1-26.1-3.514Q33.951,56.818,25.92,50.962l9.537-21.75a72.531,72.531,0,0,0,18.237,8.2,69.269,69.269,0,0,0,19.575,2.844q10.039,0,15.309-2.761t5.27-7.78q0-4.517-4.768-7.362T70.926,16.664Q54.363,13.15,44.993,8.3T31.86-3.079Q28.1-9.6,28.1-19.141A32.891,32.891,0,0,1,34.2-38.632,40.773,40.773,0,0,1,51.435-52.184,62.353,62.353,0,0,1,76.95-57.12a85.235,85.235,0,0,1,24.678,3.6q11.963,3.6,18.655,9.286l-9.369,21.75q-16.062-11.042-33.8-11.042-8.533,0-13.719,3.263T58.211-21.65a7.376,7.376,0,0,0,1.84,5.187q1.84,2.008,6.86,3.932A100.181,100.181,0,0,0,81.8-8.6Q97.863-5.087,107.065-.151t13.05,11.461a30.091,30.091,0,0,1,3.848,15.56q0,17.4-13.385,27.188T72.934,63.845Zm125.65,0q-18.4,0-32.04-7.529A51.194,51.194,0,0,1,145.63,35.068q-7.278-13.719-7.278-31.789t7.278-31.705a51.32,51.32,0,0,1,20.914-21.165q13.636-7.529,32.04-7.529a71.693,71.693,0,0,1,22.336,3.514,51.349,51.349,0,0,1,17.651,9.369l-9.537,21.75q-14.556-10.206-29.781-10.206-14.389,0-22,9.035T169.639,3.279q0,17.9,7.613,27.021t22,9.118q15.225,0,29.781-10.206l9.537,21.75a51.349,51.349,0,0,1-17.651,9.369A71.693,71.693,0,0,1,198.584,63.845Zm162.291-1.506h-33.8L306.666,24.695q-3.848-6.525-12.214-6.525h-9.369v44.17H254.8V-55.614h56.216q21.416,0,32.207,9.286t10.792,26.853q0,13.385-7.362,22.671T325.907,15.66q10.206,2.175,16.229,13.217ZM306.164-4.919q10.206,0,14.64-3.179t4.434-10.373q0-7.362-4.434-10.624t-14.64-3.263H284.749V-4.919Zm66.924,67.259V-55.614h83.822v23.758H403.037v22.42h50.528V14.154H403.037V38.581h53.874V62.339Zm99.884,0V-55.614h83.822v23.758H502.921v22.42h50.528V14.154H502.921V38.581h53.874V62.339ZM649.317-55.614h28.777V62.339H655.341L601.467-5.087V62.339h-28.61V-55.614h22.42l54.041,67.426ZM742.174,63.845a98.771,98.771,0,0,1-26.1-3.514q-12.883-3.514-20.914-9.369l9.537-21.75a72.531,72.531,0,0,0,18.237,8.2,69.269,69.269,0,0,0,19.575,2.844q10.039,0,15.309-2.761t5.27-7.78q0-4.517-4.768-7.362t-18.153-5.689Q723.6,13.15,714.234,8.3T701.1-3.079q-3.765-6.525-3.765-16.062a32.891,32.891,0,0,1,6.107-19.492,40.774,40.774,0,0,1,17.233-13.552A62.353,62.353,0,0,1,746.19-57.12a85.234,85.234,0,0,1,24.678,3.6q11.963,3.6,18.655,9.286l-9.369,21.75q-16.062-11.042-33.8-11.042-8.533,0-13.719,3.263t-5.187,8.616a7.376,7.376,0,0,0,1.84,5.187q1.84,2.008,6.86,3.932A100.182,100.182,0,0,0,751.042-8.6Q767.1-5.087,776.306-.151t13.05,11.461A30.09,30.09,0,0,1,793.2,26.87q0,17.4-13.385,27.188T742.174,63.845ZM888.905-55.614h30.116V62.339H888.905V14.656H840.72V62.339H810.6V-55.614H840.72V-9.771h48.185ZM996.486,63.845q-18.07,0-31.371-7.445a50.8,50.8,0,0,1-20.5-21.081q-7.194-13.636-7.194-32.04t7.194-32.04a50.277,50.277,0,0,1,20.5-21q13.3-7.362,31.371-7.362t31.371,7.362a49.759,49.759,0,0,1,20.412,21q7.111,13.636,7.111,32.04t-7.194,32.04a50.8,50.8,0,0,1-20.5,21.081Q1014.388,63.845,996.486,63.845Zm0-23.591q13.385,0,20.914-9.453t7.529-27.523q0-18.069-7.613-27.439t-20.83-9.369q-13.385,0-20.914,9.286T968.043,3.279q0,18.237,7.529,27.606T996.486,40.254Zm97.207,22.085V-30.685h-35.3V-55.614h101.724v24.929h-35.3V62.339Zm118.623,1.506a98.773,98.773,0,0,1-26.1-3.514q-12.883-3.514-20.914-9.369l9.537-21.75a72.537,72.537,0,0,0,18.237,8.2,69.27,69.27,0,0,0,19.575,2.844q10.039,0,15.309-2.761t5.27-7.78q0-4.517-4.768-7.362t-18.153-5.689q-16.564-3.514-25.933-8.366T1171.241-3.079q-3.764-6.525-3.765-16.062a32.891,32.891,0,0,1,6.107-19.492,40.772,40.772,0,0,1,17.233-13.552,62.354,62.354,0,0,1,25.515-4.936,85.234,85.234,0,0,1,24.678,3.6q11.963,3.6,18.655,9.286l-9.37,21.75q-16.062-11.042-33.8-11.042-8.533,0-13.719,3.263t-5.187,8.616a7.376,7.376,0,0,0,1.84,5.187q1.841,2.008,6.86,3.932A100.182,100.182,0,0,0,1221.183-8.6q16.062,3.514,25.264,8.449T1259.5,11.31a30.091,30.091,0,0,1,3.848,15.56q0,17.4-13.385,27.188T1212.316,63.845Z" transform="translate(7733.655 3718.355)"/>
  </g>
</svg>
