<svg xmlns="http://www.w3.org/2000/svg" width="604.002" height="582.151" viewBox="0 0 604.002 582.151">
  <g id="Group_2713" data-name="Group 2713" transform="translate(-294.058 -1432.961)">
    <path id="blob" d="M341.268,12.137C371.182,65.3,344.384,149.366,300.761,211.8c-43.312,62.433-103.139,102.922-161.407,101.995S24.685,270.214-16.134,209.635C-56.642,148.748-81.258,69.934-52.9,17.391-24.547-34.842,56.468-60.8,140.6-62.35,224.419-63.9,311.355-41.333,341.268,12.137Z" transform="matrix(0.899, -0.438, 0.438, 0.899, 411.896, 1674.98)" fill="#f15f31" opacity="0.1"/>
    <path id="blob-2" data-name="blob" d="M385.8,20.373c33.191,59.033,3.457,152.388-44.946,221.718-48.058,69.33-114.44,114.291-179.093,113.261S34.525,306.959-10.766,239.688c-44.946-67.614-72.26-155.134-40.8-213.48,31.462-58,121.354-86.834,214.7-88.55C256.144-64.058,352.606-39,385.8,20.373Z" transform="matrix(0.899, -0.438, 0.438, 0.899, 381.396, 1665.773)" fill="none" stroke="#3a3099" stroke-width="2" stroke-dasharray="10 10"/>
  </g>
</svg>
