<svg xmlns="http://www.w3.org/2000/svg" xmlns:xlink="http://www.w3.org/1999/xlink" width="162" height="162" viewBox="0 0 162 162">
  <defs>
    <linearGradient id="linear-gradient" x1="0.5" x2="0.5" y2="1" gradientUnits="objectBoundingBox">
      <stop offset="0" stop-color="#6a5fd6"/>
      <stop offset="1" stop-color="#3a3099"/>
    </linearGradient>
    <filter id="Rectangle_1076" x="0" y="0" width="162" height="162" filterUnits="userSpaceOnUse">
      <feOffset dy="7" input="SourceAlpha"/>
      <feGaussianBlur stdDeviation="10" result="blur"/>
      <feFlood flood-color="#3a3099" flood-opacity="0.502"/>
      <feComposite operator="in" in2="blur"/>
      <feComposite in="SourceGraphic"/>
    </filter>
  </defs>
  <g id="Group_2732" data-name="Group 2732" transform="translate(-7202 -861)">
    <g transform="matrix(1, 0, 0, 1, 7202, 861)" filter="url(#Rectangle_1076)">
      <rect id="Rectangle_1076-2" data-name="Rectangle 1076" width="102" height="102" rx="20" transform="translate(30 23)" fill="url(#linear-gradient)"/>
    </g>
    <g id="card" transform="translate(7253.371 915.086)">
      <path id="Path_4230" data-name="Path 4230" d="M54.113,0H5.119A5.125,5.125,0,0,0,0,5.12V34.643a5.125,5.125,0,0,0,5.119,5.12H54.113a5.125,5.125,0,0,0,5.12-5.12V5.12A5.125,5.125,0,0,0,54.113,0Zm3.36,34.643A3.364,3.364,0,0,1,54.113,38H5.119a3.364,3.364,0,0,1-3.36-3.36V5.12a3.364,3.364,0,0,1,3.36-3.36H54.113a3.364,3.364,0,0,1,3.36,3.36Zm0,0" transform="translate(0 0)" fill="#fff"/>
      <path id="Path_4231" data-name="Path 4231" d="M64.886,60.832H44.477a.88.88,0,0,0-.88.88v2.111a.88.88,0,0,0,1.76,0V62.591H64.007V84.056H45.357V67.341a.88.88,0,1,0-1.76,0V84.935a.88.88,0,0,0,.88.88H64.886a.88.88,0,0,0,.88-.88V61.711a.88.88,0,0,0-.88-.88Zm0,0" transform="translate(-38.554 -53.794)" fill="#fff"/>
      <path id="Path_4232" data-name="Path 4232" d="M287.552,78.465H265.5a.88.88,0,1,0,0,1.759h22.051a.88.88,0,0,0,0-1.759Zm0,0" transform="translate(-234.008 -69.387)" fill="#fff"/>
      <path id="Path_4233" data-name="Path 4233" d="M418.454,133.625h-4.926a.88.88,0,0,0,0,1.759h4.926a.88.88,0,0,0,0-1.759Zm0,0" transform="translate(-364.909 -118.166)" fill="#fff"/>
      <path id="Path_4234" data-name="Path 4234" d="M265.5,135.384h13.606a.88.88,0,1,0,0-1.759H265.5a.88.88,0,1,0,0,1.759Zm0,0" transform="translate(-234.008 -118.166)" fill="#fff"/>
      <path id="Path_4235" data-name="Path 4235" d="M287.552,188.785H265.5a.88.88,0,1,0,0,1.759h22.051a.88.88,0,0,0,0-1.759Zm0,0" transform="translate(-234.008 -166.945)" fill="#fff"/>
      <path id="Path_4236" data-name="Path 4236" d="M277.465,243.945H265.5a.88.88,0,1,0,0,1.759h11.964a.88.88,0,0,0,0-1.759Zm0,0" transform="translate(-234.008 -215.723)" fill="#fff"/>
      <path id="Path_4237" data-name="Path 4237" d="M86.18,117.086a.88.88,0,0,0,1.76,0,4.4,4.4,0,1,1,8.8,0,.88.88,0,0,0,1.759,0,6.16,6.16,0,0,0-2.99-5.278,6.158,6.158,0,1,0-6.336,0,6.16,6.16,0,0,0-2.99,5.278Zm1.76-10.557a4.4,4.4,0,1,1,4.4,4.4A4.4,4.4,0,0,1,87.939,106.529Zm0,0" transform="translate(-76.21 -88.76)" fill="#fff"/>
    </g>
  </g>
</svg>
