<svg xmlns="http://www.w3.org/2000/svg" xmlns:xlink="http://www.w3.org/1999/xlink" width="161" height="161" viewBox="0 0 161 161">
  <defs>
    <linearGradient id="linear-gradient" x1="0.5" x2="0.5" y2="1" gradientUnits="objectBoundingBox">
      <stop offset="0" stop-color="#ff9e80"/>
      <stop offset="1" stop-color="#f15f31"/>
    </linearGradient>
    <filter id="Rectangle_1079" x="0" y="0" width="161" height="161" filterUnits="userSpaceOnUse">
      <feOffset dy="7" input="SourceAlpha"/>
      <feGaussianBlur stdDeviation="10" result="blur"/>
      <feFlood flood-color="#f15f31" flood-opacity="0.502"/>
      <feComposite operator="in" in2="blur"/>
      <feComposite in="SourceGraphic"/>
    </filter>
  </defs>
  <g id="Group_2730" data-name="Group 2730" transform="translate(-6840 -1173)">
    <g transform="matrix(1, 0, 0, 1, 6840, 1173)" filter="url(#Rectangle_1079)">
      <rect id="Rectangle_1079-2" data-name="Rectangle 1079" width="101" height="101" rx="20" transform="translate(30 23)" fill="url(#linear-gradient)"/>
    </g>
    <g id="coins_2_" data-name="coins (2)" transform="translate(6901.743 1226.781)">
      <g id="Group_2328" data-name="Group 2328" transform="translate(0)">
        <path id="Path_4238" data-name="Path 4238" d="M36.625,16.487c-1.1-1.856-4.509-3.164-8.848-3.288V3.955h-.1C27.028,1.661,23.042,0,17.889,0S8.75,1.661,8.1,3.955H8V31.643a2.423,2.423,0,0,0,.1.659H8V34.94c0,2.631,4.251,4.615,9.889,4.615,4.652,0,8.352-1.352,9.507-3.3,4.519-.053,8.1-1.384,9.229-3.3,5.5-.065,9.611-2.022,9.611-4.609V21.1C46.236,18.509,42.121,16.551,36.625,16.487ZM26.459,34.94c0,1.559-3.52,3.3-8.57,3.3s-8.57-1.737-8.57-3.3v-.934c1.677,1.368,4.812,2.253,8.57,2.253s6.893-.885,8.57-2.253Zm0-3.3c0,1.559-3.52,3.3-8.57,3.3s-8.57-1.737-8.57-3.3v-.934c1.677,1.368,4.812,2.253,8.57,2.253s6.893-.885,8.57-2.253Zm0-3.3c0,1.559-3.52,3.3-8.57,3.3s-8.57-1.737-8.57-3.3v-.934c1.677,1.368,4.812,2.253,8.57,2.253s6.893-.885,8.57-2.253Zm0-3.3c0,1.559-3.52,3.3-8.57,3.3s-8.57-1.737-8.57-3.3v-.934c1.677,1.368,4.812,2.253,8.57,2.253s6.893-.885,8.57-2.253Zm0-3.3c0,1.559-3.52,3.3-8.57,3.3s-8.57-1.737-8.57-3.3v-.934c1.677,1.368,4.812,2.253,8.57,2.253s6.893-.885,8.57-2.253Zm0-3.3c0,1.559-3.52,3.3-8.57,3.3s-8.57-1.737-8.57-3.3v-.934c1.677,1.368,4.812,2.253,8.57,2.253s6.893-.885,8.57-2.253Zm0-3.3c0,1.559-3.52,3.3-8.57,3.3s-8.57-1.737-8.57-3.3v-.934c1.677,1.368,4.812,2.253,8.57,2.253s6.893-.885,8.57-2.253Zm0-3.3c0,1.559-3.52,3.3-8.57,3.3s-8.57-1.737-8.57-3.3v-.934c1.677,1.368,4.812,2.253,8.57,2.253s6.893-.885,8.57-2.253Zm0-3.3c0,1.559-3.52,3.3-8.57,3.3s-8.57-1.737-8.57-3.3V7.636C11,9,14.131,9.889,17.889,9.889S24.782,9,26.459,7.636Zm0-3.3c0,1.559-3.52,3.3-8.57,3.3s-8.57-1.737-8.57-3.3V4.615c0-1.559,3.52-3.3,8.57-3.3s8.57,1.737,8.57,3.3Zm9.229,26.369c0,1.49-3.218,3.139-7.911,3.282V32.948c3.464-.1,6.333-.952,7.911-2.241Zm0-3.3c0,1.49-3.218,3.139-7.911,3.282V29.651c3.464-.1,6.333-.952,7.911-2.241Zm0-3.3c0,1.49-3.218,3.139-7.911,3.282V26.355c3.464-.1,6.333-.952,7.911-2.241Zm0-3.3c0,1.49-3.218,3.139-7.911,3.282V23.059c3.464-.1,6.333-.952,7.911-2.241Zm0-3.3c0,1.49-3.218,3.139-7.911,3.282V14.517c4.692.144,7.911,1.792,7.911,3.282Zm9.229,9.889c0,1.49-3.218,3.139-7.911,3.282V29.652c3.464-.1,6.333-.952,7.911-2.241Zm0-3.3c0,1.49-3.218,3.139-7.911,3.282V26.356c3.464-.1,6.333-.952,7.911-2.241Zm0-3.3c0,1.49-3.218,3.139-7.911,3.282V17.813c4.692.144,7.911,1.792,7.911,3.282Z" transform="translate(-8)" fill="#fff"/>
      </g>
    </g>
  </g>
</svg>
