<svg xmlns="http://www.w3.org/2000/svg" xmlns:xlink="http://www.w3.org/1999/xlink" width="162" height="162" viewBox="0 0 162 162">
  <defs>
    <linearGradient id="linear-gradient" x1="0.552" y1="1" x2="0.5" gradientUnits="objectBoundingBox">
      <stop offset="0"/>
      <stop offset="1" stop-color="#474747"/>
    </linearGradient>
    <filter id="Rectangle_1078" x="0" y="0" width="162" height="162" filterUnits="userSpaceOnUse">
      <feOffset dy="7" input="SourceAlpha"/>
      <feGaussianBlur stdDeviation="10" result="blur"/>
      <feFlood flood-color="#0d0d0d" flood-opacity="0.502"/>
      <feComposite operator="in" in2="blur"/>
      <feComposite in="SourceGraphic"/>
    </filter>
  </defs>
  <g id="Group_2731" data-name="Group 2731" transform="translate(-7202 -1173)">
    <g transform="matrix(1, 0, 0, 1, 7202, 1173)" filter="url(#Rectangle_1078)">
      <rect id="Rectangle_1078-2" data-name="Rectangle 1078" width="102" height="102" rx="20" transform="translate(30 23)" fill="url(#linear-gradient)"/>
    </g>
    <g id="wallet" transform="translate(7254.992 1225.29)">
      <g id="Group_2330" data-name="Group 2330" transform="translate(8.008 0)">
        <g id="Group_2329" data-name="Group 2329" transform="translate(0 0)">
          <path id="Path_4239" data-name="Path 4239" d="M48.95,25.6H48.3V19.711a2.766,2.766,0,0,0-1.173-2.26v-.8a2.113,2.113,0,0,0-2.11-2.11h-.488L46.393,11.8a2.02,2.02,0,0,0-.531-2.8L33.182.351a2.017,2.017,0,0,0-2.8.531L19.434,16.942H16.389L17.123,9.5a.221.221,0,0,1,.139-.185,4.735,4.735,0,0,0,2.31-1.877.219.219,0,0,1,.207-.1l4.777.472a.623.623,0,1,0,.122-1.24L19.9,6.105a1.458,1.458,0,0,0-1.38.668,3.481,3.481,0,0,1-1.7,1.38,1.456,1.456,0,0,0-.939,1.228l-.747,7.561h-.794L15.5,5.178a.772.772,0,0,1,.844-.692L26,5.439a.623.623,0,0,0,.122-1.24l-9.653-.954a2.02,2.02,0,0,0-2.206,1.809l-.937,9.482h-1.6a2.113,2.113,0,0,0-2.11,2.11V17.2a2.771,2.771,0,0,0-1.615,2.515V40.942a2.771,2.771,0,0,0,2.768,2.768H45.528A2.771,2.771,0,0,0,48.3,40.942V35.05h.654a1.4,1.4,0,0,0,1.4-1.4V27A1.4,1.4,0,0,0,48.95,25.6Zm-3.938-9.819h0a.866.866,0,0,1,.865.865v.317a2.776,2.776,0,0,0-.349-.023H42.885l.79-1.159Zm-13.6-14.2A.767.767,0,0,1,31.9,1.26a.783.783,0,0,1,.145-.014.767.767,0,0,1,.433.134l12.68,8.641a.773.773,0,0,1,.2,1.072l-3.986,5.848h-.956l1.954-2.867a1.456,1.456,0,0,0,.068-1.545,3.481,3.481,0,0,1-.417-2.148,1.457,1.457,0,0,0-.63-1.4L34.823,4.5a1.457,1.457,0,0,0-1.532-.075,3.482,3.482,0,0,1-2.152.4,1.474,1.474,0,0,0-1.413.628L21.9,16.942h-.956Zm.274,10.577a5.139,5.139,0,0,0-5.12,4.782H23.405l7.35-10.786h0a.222.222,0,0,1,.182-.1l.028,0a4.735,4.735,0,0,0,2.927-.54.22.22,0,0,1,.228.014l6.573,4.48a.22.22,0,0,1,.1.207,4.734,4.734,0,0,0,.568,2.922.221.221,0,0,1-.012.231l-2.432,3.569H36.8A5.14,5.14,0,0,0,31.682,12.16Zm3.871,4.782H27.811a3.887,3.887,0,0,1,7.743,0Zm-24.685-.295a.866.866,0,0,1,.865-.865h1.472l-.114,1.159H10.868ZM9.254,19.711a1.524,1.524,0,0,1,1.523-1.523H45.528a1.524,1.524,0,0,1,1.523,1.523v1.728H9.254Zm37.8,21.231a1.524,1.524,0,0,1-1.523,1.523H10.776a1.524,1.524,0,0,1-1.523-1.523V39.214h3.359a.623.623,0,0,0,0-1.246H9.254V22.685h37.8V25.6H41.129a4.729,4.729,0,0,0-4.249,2.662l-.008.016-.018.041a4.7,4.7,0,0,0-.235.6v0a4.725,4.725,0,0,0,4.512,6.125h5.922v2.918H16.6a.623.623,0,0,0,0,1.246h30.45Zm2.054-7.292a.155.155,0,0,1-.155.155H41.129a3.481,3.481,0,0,1-3.058-1.822q-.04-.074-.077-.15-.073-.152-.132-.312a3.482,3.482,0,0,1,0-2.389q.059-.16.132-.312.037-.076.077-.15a3.481,3.481,0,0,1,3.058-1.822H48.95a.155.155,0,0,1,.155.155Z" transform="translate(-8.008 0)" fill="#fff"/>
        </g>
      </g>
      <g id="Group_2332" data-name="Group 2332" transform="translate(38.748 27.799)">
        <g id="Group_2331" data-name="Group 2331">
          <path id="Path_4240" data-name="Path 4240" d="M370.608,325.627a2.527,2.527,0,1,0,2.527,2.527A2.53,2.53,0,0,0,370.608,325.627Zm0,3.808a1.281,1.281,0,1,1,1.281-1.281A1.283,1.283,0,0,1,370.608,329.435Z" transform="translate(-368.081 -325.627)" fill="#fff"/>
        </g>
      </g>
    </g>
  </g>
</svg>
