<svg xmlns="http://www.w3.org/2000/svg" width="39.343" height="39.343" viewBox="0 0 39.343 39.343">
  <g id="instagram_hover" data-name="instagram hover" transform="translate(-3719.585 -5667)">
    <rect id="background" width="39.343" height="39.343" rx="10" transform="translate(3719.585 5667)" fill="#f15f31"/>
    <path id="instagram_icon" data-name="instagram icon" d="M5.992,20.33a7.487,7.487,0,0,1-2.475-.474,5.013,5.013,0,0,1-1.806-1.176A4.984,4.984,0,0,1,.535,16.875,7.481,7.481,0,0,1,.062,14.4C.011,13.313,0,12.965,0,10.2s.011-3.116.062-4.2A7.48,7.48,0,0,1,.535,3.518,4.99,4.99,0,0,1,1.712,1.711,5,5,0,0,1,3.518.535,7.475,7.475,0,0,1,5.993.062C7.08.011,7.428,0,10.2,0s3.117.012,4.2.062a7.471,7.471,0,0,1,2.475.474A4.991,4.991,0,0,1,18.68,1.711a5.014,5.014,0,0,1,1.176,1.806,7.476,7.476,0,0,1,.474,2.475c.049,1.087.061,1.434.061,4.2s-.011,3.116-.061,4.2a7.456,7.456,0,0,1-.474,2.475,5.215,5.215,0,0,1-2.983,2.983,7.475,7.475,0,0,1-2.475.474c-1.087.049-1.434.062-4.2.062S7.08,20.38,5.992,20.33ZM2.249,4.183A5.674,5.674,0,0,0,1.9,6.076c-.049,1.075-.059,1.4-.059,4.12s.01,3.046.059,4.12a5.63,5.63,0,0,0,.351,1.893,3.146,3.146,0,0,0,.763,1.172,3.169,3.169,0,0,0,1.173.763,5.634,5.634,0,0,0,1.893.35c1.075.05,1.4.06,4.12.06s3.046-.01,4.12-.06a5.628,5.628,0,0,0,1.893-.35,3.372,3.372,0,0,0,1.934-1.933,5.653,5.653,0,0,0,.351-1.893c.05-1.075.059-1.4.059-4.12s-.01-3.044-.059-4.12a5.63,5.63,0,0,0-.351-1.893,3.157,3.157,0,0,0-.762-1.173,3.16,3.16,0,0,0-1.173-.763A5.669,5.669,0,0,0,14.316,1.9c-1.075-.049-1.4-.059-4.12-.059s-3.046.01-4.12.059a5.628,5.628,0,0,0-1.893.351,3.142,3.142,0,0,0-1.173.763,3.16,3.16,0,0,0-.762,1.172ZM4.96,10.2h0A5.235,5.235,0,1,1,10.2,15.432,5.216,5.216,0,0,1,4.96,10.2Zm1.838,0a3.4,3.4,0,1,0,.675-2.032A3.4,3.4,0,0,0,6.8,10.2Zm8.839-4.218a1.224,1.224,0,0,1-1.223-1.224h0a1.223,1.223,0,1,1,1.223,1.224Z" transform="translate(3729.483 5676.897)" fill="#fff"/>
  </g>
</svg>
