<svg xmlns="http://www.w3.org/2000/svg" width="39.343" height="39.343" viewBox="0 0 39.343 39.343">
  <g id="twitter_hover" data-name="twitter hover" transform="translate(-3780.072 -5667)">
    <rect id="background" width="39.343" height="39.343" rx="10" transform="translate(3780.072 5667)" fill="#f15f31"/>
    <path id="twitter_icon" data-name="twitter icon" d="M15.794,0V0H16.9l.4.081a4.332,4.332,0,0,1,.735.207,5.231,5.231,0,0,1,.639.3,6.08,6.08,0,0,1,.561.347,3.45,3.45,0,0,1,.448.371.621.621,0,0,0,.612.1,8.182,8.182,0,0,0,.9-.267q.48-.17.948-.384t.571-.271l.106-.064,0-.006L22.849.4l.022-.011.022-.011.022-.011,0-.006.006,0,.006,0,0-.006.022-.006.022,0,0,.032L22.969.4l-.011.032-.011.032L22.937.49l-.011.022-.011.032a.742.742,0,0,0-.022.085,3.577,3.577,0,0,1-.2.426,5.331,5.331,0,0,1-.48.757,3.72,3.72,0,0,1-.518.579q-.23.2-.3.277a.915.915,0,0,1-.181.149l-.106.07-.022.011-.022.011,0,.006-.006,0-.006,0,0,.006-.022.011-.022.011,0,.006-.006,0-.006,0,0,.006,0,.006-.006,0-.006,0,0,.006h.108l.6-.128a10.68,10.68,0,0,0,1.139-.309l.575-.192.064-.022.032-.011.022-.011.022-.011.022-.011.022-.011.043-.006.043,0v.043l-.011,0-.011.006,0,.006-.006,0-.006,0,0,.006,0,.006-.006,0-.006,0,0,.006,0,.006-.006,0-.011.022-.011.022-.006,0-.271.362a3,3,0,0,1-.288.362q-.022.006-.06.064a6.107,6.107,0,0,1-.452.475,10.726,10.726,0,0,1-.814.74,1.009,1.009,0,0,0-.4.8q-.006.473-.049,1.07t-.16,1.29a15.374,15.374,0,0,1-.362,1.567,14.243,14.243,0,0,1-.6,1.705,13.285,13.285,0,0,1-.735,1.492q-.384.661-.7,1.119t-.651.863q-.33.4-.836.912t-.554.554q-.049.047-.418.351t-.789.61a9.122,9.122,0,0,1-.772.505q-.351.2-.848.463a10.093,10.093,0,0,1-1.07.486q-.575.224-1.215.416a11.1,11.1,0,0,1-1.236.3q-.6.106-1.354.181l-.757.075v.011H6.756v-.011l-.181-.011q-.181-.011-.3-.022t-.885-.117q-.767-.106-1.205-.213t-1.3-.406a12.651,12.651,0,0,1-1.477-.6q-.612-.3-.767-.384t-.345-.2l-.192-.117,0-.006-.006,0-.006,0,0-.006-.022-.011-.022-.011,0-.006-.006,0-.006,0,0-.007,0-.006-.006,0H0v-.043l.022,0,.022.006.1.011q.1.011.522.032t.906,0a9.533,9.533,0,0,0,.98-.1,11.046,11.046,0,0,0,1.183-.256,8.74,8.74,0,0,0,1.253-.431q.57-.252.811-.375a7.886,7.886,0,0,0,.729-.452l.487-.33,0-.006.006,0,.006,0,0-.006,0-.006.006,0,.006,0,0-.006.022-.006.022,0,0-.022.006-.022.006,0,0-.006L6.948,15l-.33-.022a3.2,3.2,0,0,1-.5-.1,4.807,4.807,0,0,1-.735-.256,5.669,5.669,0,0,1-.767-.4,3.776,3.776,0,0,1-.539-.39q-.164-.153-.426-.435A4.313,4.313,0,0,1,3.2,12.82a5.228,5.228,0,0,1-.367-.688l-.177-.386-.011-.032-.011-.032-.006-.022,0-.022.032,0,.032.006.234.032a5.209,5.209,0,0,0,.735.022,5.693,5.693,0,0,0,.693-.043q.192-.032.234-.043l.043-.011.053-.011.053-.011,0-.006.006,0,.006,0,0-.006-.042-.011-.043-.011-.043-.011-.043-.011-.043-.011-.149-.043q-.107-.032-.575-.234a4.4,4.4,0,0,1-.745-.394,5.152,5.152,0,0,1-.529-.42,6.031,6.031,0,0,1-.548-.592,4.264,4.264,0,0,1-.534-.842,5.12,5.12,0,0,1-.351-.917,4.948,4.948,0,0,1-.153-.885L.918,6.735l.022,0,.022.006.022.011.022.011.022.011.022.011.33.149a4.168,4.168,0,0,0,.821.256q.49.106.586.117l.1.011h.192l0-.006-.006,0-.006,0,0-.006,0-.006-.006,0-.006,0,0-.006L3.01,7.269l-.022-.011,0-.006-.006,0-.006,0,0-.006-.022-.011-.022-.011,0-.006-.183-.137a2.8,2.8,0,0,1-.369-.348q-.192-.213-.384-.448a3.456,3.456,0,0,1-.342-.5A6.072,6.072,0,0,1,1.326,5.1a4.811,4.811,0,0,1-.249-.825,4.7,4.7,0,0,1-.1-.821A5.167,5.167,0,0,1,1,2.76,4.527,4.527,0,0,1,1.13,2.11a5.065,5.065,0,0,1,.277-.767L1.588.938,1.6.906,1.61.874l.006,0,0-.006,0-.006.006,0,.006,0,0,.006,0,.006.006,0,.006,0,0,.006,0,.006.006,0,.011.022.011.022.006,0,0,.006.287.319q.288.32.682.714a4.008,4.008,0,0,0,.436.409.312.312,0,0,1,.106.1,4.351,4.351,0,0,0,.426.377q.362.3.948.693t1.3.778a12.686,12.686,0,0,0,1.534.693q.821.309,1.151.4t1.13.245q.8.149,1.205.192t.554.049l.149,0,0-.032-.006-.032-.043-.266a5.008,5.008,0,0,1-.043-.745,4.891,4.891,0,0,1,.075-.885,5.239,5.239,0,0,1,.224-.821,4.384,4.384,0,0,1,.293-.668,6.563,6.563,0,0,1,.379-.568,4.6,4.6,0,0,1,.607-.661A4.482,4.482,0,0,1,13.95.639a5.542,5.542,0,0,1,.885-.4,4.122,4.122,0,0,1,.682-.181A2.37,2.37,0,0,0,15.794,0Z" transform="translate(3787.77 5676.897)" fill="#fff"/>
  </g>
</svg>
